<svg width="3400" height="800" viewBox="0 0 3400 800" fill="none" xmlns="http://www.w3.org/2000/svg">
<path d="M215.457 252.72L130.522 141.12V252.72H68.9797V0H130.522V110.88L214.737 0H287.076L189.185 123.84L290.674 252.72H215.457Z" fill="#002C76"/>
<path fill-rule="evenodd" clip-rule="evenodd" d="M472.877 123.12C487.512 126.24 499.269 133.56 508.146 145.08C517.024 156.36 521.462 169.32 521.462 183.96C521.462 205.08 514.025 221.88 499.149 234.36C484.513 246.6 463.999 252.72 437.607 252.72H319.922V0H433.648C459.32 0 479.355 5.87988 493.75 17.6399C508.386 29.3999 515.704 45.3601 515.704 65.52C515.704 80.3999 511.745 92.76 503.827 102.6C496.15 112.44 485.833 119.28 472.877 123.12ZM381.464 102.24H421.771C431.849 102.24 439.527 100.08 444.805 95.76C450.323 91.2 453.083 84.6001 453.083 75.96C453.083 67.3201 450.323 60.72 444.805 56.1599C439.527 51.6001 431.849 49.3201 421.771 49.3201H381.464V102.24ZM426.81 203.04C437.127 203.04 445.045 200.76 450.563 196.2C456.321 191.4 459.201 184.56 459.201 175.68C459.201 166.8 456.202 159.84 450.204 154.8C444.445 149.76 436.407 147.24 426.091 147.24H381.464V203.04H426.81Z" fill="#002C76"/>
<path d="M622.657 202.32H731.345V252.72H552.837V205.92L660.806 50.3999H552.837V0H731.345V46.8L622.657 202.32Z" fill="#002C76"/>
<path d="M163.412 549.54C163.412 561.713 165.831 572.42 170.67 581.66C175.655 590.9 182.399 598.013 190.904 603C199.555 607.987 209.232 610.48 219.935 610.48C230.639 610.48 240.243 607.987 248.747 603C257.398 598.013 264.142 590.9 268.981 581.66C273.966 572.42 276.459 561.713 276.459 549.54C276.459 537.22 273.966 526.513 268.981 517.42C264.142 508.18 257.471 501.067 248.967 496.08C240.462 491.093 230.786 488.6 219.935 488.6C209.085 488.6 199.408 491.093 190.904 496.08C182.399 501.067 175.655 508.18 170.67 517.42C165.831 526.513 163.412 537.22 163.412 549.54Z" fill="#002C76"/>
<path fill-rule="evenodd" clip-rule="evenodd" d="M45.9865 326C20.5887 326 0 346.595 0 372V486.006C39.3937 486.542 71.1734 520.808 71.1734 563C71.1734 605.192 39.3937 639.458 0 639.994V754C0 779.405 20.5887 800 45.9865 800H753.778C779.176 800 799.765 779.405 799.765 754V639.994L799.302 639.998L798.829 640C759.003 640 726.718 605.526 726.718 563C726.718 520.474 759.003 486 798.829 486H798.993L799.214 486.001L799.47 486.003L799.765 486.006V372C799.765 346.595 779.176 326 753.778 326H45.9865ZM131.961 404C131.961 401.791 133.752 400 135.96 400H147.956C150.165 400 151.955 401.791 151.955 404C151.955 406.209 150.165 408 147.956 408H135.96C133.752 408 131.961 406.209 131.961 404ZM167.951 404C167.951 401.791 169.741 400 171.949 400H195.942C198.151 400 199.941 401.791 199.941 404C199.941 406.209 198.151 408 195.942 408H171.949C169.741 408 167.951 406.209 167.951 404ZM219.935 400C217.727 400 215.936 401.791 215.936 404C215.936 406.209 217.727 408 219.935 408H243.928C246.137 408 247.927 406.209 247.927 404C247.927 401.791 246.137 400 243.928 400H219.935ZM263.922 404C263.922 401.791 265.713 400 267.921 400H291.914C294.122 400 295.913 401.791 295.913 404C295.913 406.209 294.122 408 291.914 408H267.921C265.713 408 263.922 406.209 263.922 404ZM315.907 400C313.699 400 311.908 401.791 311.908 404C311.908 406.209 313.699 408 315.907 408H339.9C342.108 408 343.899 406.209 343.899 404C343.899 401.791 342.108 400 339.9 400H315.907ZM359.894 404C359.894 401.791 361.685 400 363.893 400H387.886C390.094 400 391.885 401.791 391.885 404C391.885 406.209 390.094 408 387.886 408H363.893C361.685 408 359.894 406.209 359.894 404ZM411.879 400C409.671 400 407.88 401.791 407.88 404C407.88 406.209 409.671 408 411.879 408H435.872C438.08 408 439.871 406.209 439.871 404C439.871 401.791 438.08 400 435.872 400H411.879ZM455.866 404C455.866 401.791 457.656 400 459.865 400H483.858C486.066 400 487.857 401.791 487.857 404C487.857 406.209 486.066 408 483.858 408H459.865C457.656 408 455.866 406.209 455.866 404ZM507.851 400C505.642 400 503.852 401.791 503.852 404C503.852 406.209 505.642 408 507.851 408H531.844C534.052 408 535.842 406.209 535.842 404C535.842 401.791 534.052 400 531.844 400H507.851ZM551.838 404C551.838 401.791 553.628 400 555.837 400H579.829C582.038 400 583.828 401.791 583.828 404C583.828 406.209 582.038 408 579.829 408H555.837C553.628 408 551.838 406.209 551.838 404ZM603.822 400C601.614 400 599.824 401.791 599.824 404C599.824 406.209 601.614 408 603.822 408H627.815C630.024 408 631.814 406.209 631.814 404C631.814 401.791 630.024 400 627.815 400H603.822ZM647.809 404C647.809 401.791 649.6 400 651.808 400H663.805C666.013 400 667.804 401.791 667.804 404C667.804 406.209 666.013 408 663.805 408H651.808C649.6 408 647.809 406.209 647.809 404ZM578.521 622.58C586.585 626.1 595.676 627.86 605.793 627.86C616.35 627.86 625.513 625.807 633.284 621.7C641.056 617.593 646.921 612.24 650.88 605.64C654.839 599.04 656.819 592 656.819 584.52C656.819 574.84 654.618 567.213 650.22 561.64C645.822 555.92 640.542 551.74 634.385 549.1C628.226 546.313 620.089 543.527 609.972 540.74C601.614 538.393 595.09 536.34 590.398 534.58C585.852 532.673 581.967 529.96 578.741 526.44C575.662 522.92 574.122 518.373 574.122 512.8C574.122 505.027 576.762 499.013 582.04 494.76C587.318 490.36 594.136 488.16 602.494 488.16C611.437 488.16 618.623 490.433 624.047 494.98C629.473 499.38 632.552 504.513 633.284 510.38H655.278C654.105 498.5 648.9 488.967 639.663 481.78C630.572 474.593 618.842 471 604.474 471C594.503 471 585.632 472.76 577.861 476.28C570.237 479.8 564.299 484.787 560.046 491.24C555.795 497.693 553.668 505.1 553.668 513.46C553.668 522.993 555.795 530.62 560.046 536.34C564.445 541.913 569.651 546.02 575.662 548.66C581.82 551.3 589.957 553.94 600.074 556.58C608.286 558.78 614.81 560.833 619.649 562.74C624.487 564.647 628.52 567.433 631.746 571.1C634.971 574.767 636.584 579.533 636.584 585.4C636.584 592.88 633.798 599.04 628.226 603.88C622.801 608.573 615.323 610.92 605.793 610.92C595.823 610.92 588.198 608.5 582.919 603.66C577.788 598.673 574.855 592.587 574.122 585.4H552.789C552.935 593.76 555.281 601.167 559.827 607.62C564.371 613.927 570.604 618.913 578.521 622.58ZM242.808 624.78L273.38 655.36H299.332L260.624 616.86C271.913 610.113 280.784 600.873 287.236 589.14C293.687 577.407 296.913 564.207 296.913 549.54C296.913 534.433 293.541 520.94 286.796 509.06C280.051 497.18 270.814 487.94 259.084 481.34C247.354 474.593 234.304 471.22 219.935 471.22C205.713 471.22 192.737 474.593 181.007 481.34C169.277 487.94 159.966 497.253 153.075 509.28C146.33 521.16 142.958 534.58 142.958 549.54C142.958 564.5 146.33 577.993 153.075 590.02C159.966 601.9 169.277 611.213 181.007 617.96C192.737 624.56 205.713 627.86 219.935 627.86C227.706 627.86 235.331 626.833 242.808 624.78ZM501.251 474.08V626.32H481.237V512.8L430.653 626.32H416.577L365.771 512.58V626.32H345.757V474.08H367.311L423.615 599.92L479.917 474.08H501.251ZM135.96 711C133.752 711 131.961 712.791 131.961 715C131.961 717.209 133.752 719 135.96 719H147.956C150.165 719 151.955 717.209 151.955 715C151.955 712.791 150.165 711 147.956 711H135.96ZM167.951 715C167.951 712.791 169.741 711 171.949 711H195.942C198.151 711 199.941 712.791 199.941 715C199.941 717.209 198.151 719 195.942 719H171.949C169.741 719 167.951 717.209 167.951 715ZM219.935 711C217.727 711 215.936 712.791 215.936 715C215.936 717.209 217.727 719 219.935 719H243.928C246.137 719 247.927 717.209 247.927 715C247.927 712.791 246.137 711 243.928 711H219.935ZM263.922 715C263.922 712.791 265.713 711 267.921 711H291.914C294.122 711 295.913 712.791 295.913 715C295.913 717.209 294.122 719 291.914 719H267.921C265.713 719 263.922 717.209 263.922 715ZM315.907 711C313.699 711 311.908 712.791 311.908 715C311.908 717.209 313.699 719 315.907 719H339.9C342.108 719 343.899 717.209 343.899 715C343.899 712.791 342.108 711 339.9 711H315.907ZM359.894 715C359.894 712.791 361.685 711 363.893 711H387.886C390.094 711 391.885 712.791 391.885 715C391.885 717.209 390.094 719 387.886 719H363.893C361.685 719 359.894 717.209 359.894 715ZM411.879 711C409.671 711 407.88 712.791 407.88 715C407.88 717.209 409.671 719 411.879 719H435.872C438.08 719 439.871 717.209 439.871 715C439.871 712.791 438.08 711 435.872 711H411.879ZM455.866 715C455.866 712.791 457.656 711 459.865 711H483.858C486.066 711 487.857 712.791 487.857 715C487.857 717.209 486.066 719 483.858 719H459.865C457.656 719 455.866 717.209 455.866 715ZM507.851 711C505.642 711 503.852 712.791 503.852 715C503.852 717.209 505.642 719 507.851 719H531.844C534.052 719 535.842 717.209 535.842 715C535.842 712.791 534.052 711 531.844 711H507.851ZM551.838 715C551.838 712.791 553.628 711 555.837 711H579.829C582.038 711 583.828 712.791 583.828 715C583.828 717.209 582.038 719 579.829 719H555.837C553.628 719 551.838 717.209 551.838 715ZM603.822 711C601.614 711 599.824 712.791 599.824 715C599.824 717.209 601.614 719 603.822 719H627.815C630.024 719 631.814 717.209 631.814 715C631.814 712.791 630.024 711 627.815 711H603.822ZM647.809 715C647.809 712.791 649.6 711 651.808 711H663.805C666.013 711 667.804 712.791 667.804 715C667.804 717.209 666.013 719 663.805 719H651.808C649.6 719 647.809 717.209 647.809 715Z" fill="#002C76"/>
<path d="M3209.11 466L3294.06 583H3400L3283.07 444L3399 304H3293.56L3209.11 417.5V213H3123.66V583H3209.11V466Z" fill="#002C76"/>
<path d="M1254.08 575.5L1136.15 420.5V575.5H1050.69V224.5H1136.15V378.5L1253.08 224.5H1353.53L1217.6 396.5L1358.53 575.5H1254.08Z" fill="#002C76"/>
<path fill-rule="evenodd" clip-rule="evenodd" d="M1611.52 395.5C1631.85 399.833 1648.17 410 1660.5 426C1672.82 441.667 1678.99 459.667 1678.99 480C1678.99 509.333 1668.66 532.667 1648 550C1627.68 567 1599.2 575.5 1562.55 575.5H1399.14V224.5H1557.05C1592.7 224.5 1620.52 232.667 1640.51 249C1660.83 265.333 1670.99 287.5 1670.99 315.5C1670.99 336.167 1665.49 353.333 1654.5 367C1643.84 380.667 1629.51 390.167 1611.52 395.5ZM1484.59 366.5H1540.56C1554.55 366.5 1565.21 363.5 1572.54 357.5C1580.21 351.167 1584.04 342 1584.04 330C1584.04 318 1580.21 308.833 1572.54 302.5C1565.21 296.167 1554.55 293 1540.56 293H1484.59V366.5ZM1547.56 506.5C1561.88 506.5 1572.88 503.333 1580.54 497C1588.54 490.333 1592.53 480.833 1592.53 468.5C1592.53 456.167 1588.37 446.5 1580.04 439.5C1572.04 432.5 1560.88 429 1546.56 429H1484.59V506.5H1547.56Z" fill="#002C76"/>
<path d="M1970.42 505.5H1819.5L1970.42 289.5V224.5H1722.55V294.5H1872.47L1722.55 510.5V575.5H1970.42V505.5Z" fill="#002C76"/>
<path fill-rule="evenodd" clip-rule="evenodd" d="M2330.75 403C2351.08 407.333 2367.4 417.5 2379.73 433.5C2392.05 449.167 2398.22 467.167 2398.22 487.5C2398.22 516.833 2387.89 540.167 2367.23 557.5C2346.91 574.5 2318.43 583 2281.78 583H2118.38V232H2276.29C2311.93 232 2339.75 240.167 2359.74 256.5C2380.06 272.833 2390.22 295 2390.22 323C2390.22 343.667 2384.72 360.833 2373.73 374.5C2363.07 388.167 2348.74 397.667 2330.75 403ZM2203.83 374H2259.8C2273.79 374 2284.45 371 2291.78 365C2299.44 358.667 2303.27 349.5 2303.27 337.5C2303.27 325.5 2299.44 316.333 2291.78 310C2284.45 303.667 2273.79 300.5 2259.8 300.5H2203.83V374ZM2266.79 514C2281.12 514 2292.11 510.833 2299.77 504.5C2307.77 497.833 2311.77 488.333 2311.77 476C2311.77 463.667 2307.6 454 2299.27 447C2291.28 440 2280.12 436.5 2265.79 436.5H2203.83V514H2266.79Z" fill="#002C76"/>
<path fill-rule="evenodd" clip-rule="evenodd" d="M2446.78 367.5C2436.12 389.167 2430.79 414.333 2430.79 443C2430.79 471.667 2436.12 497 2446.78 519C2457.77 540.667 2472.6 557.5 2491.25 569.5C2509.91 581.167 2530.56 587 2553.22 587C2572.87 587 2590.03 583 2604.69 575C2619.68 567 2631.34 556.5 2639.67 543.5V583H2725.12V304H2639.67V343.5C2631.67 330.5 2620.18 320 2605.19 312C2590.53 304 2573.37 300 2553.72 300C2530.73 300 2509.91 305.833 2491.25 317.5C2472.6 329.167 2457.77 345.833 2446.78 367.5ZM2621.68 393C2633.67 405.333 2639.67 422.167 2639.67 443.5C2639.67 464.833 2633.67 481.667 2621.68 494C2610.02 506.333 2595.69 512.5 2578.7 512.5C2561.71 512.5 2547.22 506.333 2535.23 494C2523.57 481.333 2517.74 464.333 2517.74 443C2517.74 421.667 2523.57 405 2535.23 393C2547.22 380.667 2561.71 374.5 2578.7 374.5C2595.69 374.5 2610.02 380.667 2621.68 393Z" fill="#002C76"/>
<path d="M2956.84 301C2989.49 301 3015.47 311.667 3034.8 333C3054.45 354 3064.28 383 3064.28 420V583H2979.33V431.5C2979.33 412.833 2974.5 398.333 2964.84 388C2955.17 377.667 2942.18 372.5 2925.86 372.5C2909.53 372.5 2896.54 377.667 2886.88 388C2877.22 398.333 2872.39 412.833 2872.39 431.5V583H2786.94V304H2872.39V341C2881.05 328.667 2892.71 319 2907.37 312C2922.03 304.667 2938.52 301 2956.84 301Z" fill="#002C76"/>
</svg>
