<svg width="225" height="207" viewBox="0 0 225 207" fill="none" xmlns="http://www.w3.org/2000/svg">
<path d="M202.501 76.0757L196.299 80.8889L168.755 102.259L202.501 128.441V76.0757Z" fill="#283677"/>
<path d="M175.906 0.213454V41.4752L175.91 41.4787L202.501 20.8461V20.8426L175.91 0.209961L175.906 0.213454Z" fill="url(#paint0_linear_1162_7511)"/>
<path d="M168.752 154.631L202.498 128.449V128.445L168.752 102.262H168.745V154.631H168.752Z" fill="url(#paint1_linear_1162_7511)"/>
<path d="M236.243 102.266L236.246 102.262V102.255V49.8999L202.504 76.0793L202.501 76.0828L236.243 102.266Z" fill="url(#paint2_linear_1162_7511)"/>
<path d="M101.247 207.001L101.251 207.004L134.996 180.821V180.814L101.251 154.631L101.247 154.635V207.001Z" fill="#00AE88"/>
<path d="M134.996 128.449L101.25 154.632L134.996 180.814V128.449Z" fill="#283677"/>
<path d="M135 180.818L168.745 154.635V154.632L135 128.445L134.996 128.449V180.815L135 180.818Z" fill="#0054A6"/>
<path d="M33.7524 154.632L67.4979 180.818V128.449L33.7524 154.632Z" fill="#0054A6"/>
<path style="mix-blend-mode:multiply" opacity="0.3" d="M67.498 180.821V180.818L33.7525 154.631L33.749 154.635V207.001L33.7525 207.004L67.498 180.821Z" fill="url(#paint3_linear_1162_7511)"/>
<path d="M0.00335693 180.818L33.7489 207V154.635L0.00335693 180.818Z" fill="#283677"/>
<path d="M168.745 154.635V207.001L168.752 207.004L202.498 180.821V180.814L168.752 154.631L168.745 154.635Z" fill="#283677"/>
<path d="M134.996 180.821V233.187L135 233.19L168.745 207.007V207V154.635L135 180.818L134.996 180.821Z" fill="#1E2959"/>
<path d="M134.996 180.821L101.25 207.004L134.996 233.187V180.821Z" fill="#283677"/>
<path d="M202.497 233.187V180.821L168.752 207.004L202.497 233.187Z" fill="url(#paint4_linear_1162_7511)"/>
<path d="M202.498 233.187L202.501 233.191L236.247 207.008V207.001L202.501 180.818L202.498 180.821V233.187Z" fill="url(#paint5_linear_1162_7511)"/>
<path d="M67.498 233.187L67.5015 233.19L101.247 207.007L101.25 207.004L101.247 207V154.635L67.5015 180.818L67.498 180.821V233.187Z" fill="#1E2959"/>
<path d="M33.7524 207.004L67.4979 233.187V180.821L33.7524 207.004Z" fill="#0054A6"/>
<path d="M236.246 102.266V102.262L236.243 102.266L202.501 128.445L236.246 154.628V102.273V102.266Z" fill="url(#paint6_linear_1162_7511)"/>
<path d="M67.498 128.449V128.445L33.7525 102.262H33.749V154.631H33.7525L67.498 128.449Z" fill="#0C2F43"/>
<path d="M193.072 68.7581L202.497 76.0723V23.7065L168.752 49.8894L193.072 68.7581Z" fill="#1E2959"/>
<path d="M168.752 49.8896L168.745 49.8931L134.999 76.076L168.745 102.259H168.748H168.745V102.262H168.752L196.295 80.8892L202.497 76.0795V128.445V128.449L168.752 154.632L202.497 180.814V180.821L202.501 180.818L236.246 207.001V154.639V154.635L236.25 154.632L236.246 154.628L202.501 128.445L236.243 102.266L202.501 76.083L202.504 76.0795L202.501 76.076L202.497 76.0725L193.072 68.7584L168.752 49.8896Z" fill="#0054A6"/>
<path d="M168.745 102.262V102.259L135 76.0757H134.996V128.445H135L168.745 102.262Z" fill="#1E2959"/>
<path d="M134.996 180.814V180.824L135.001 180.819L134.996 180.814Z" fill="#092434"/>
<path d="M168.745 154.636L168.754 154.631H168.745V154.636Z" fill="#092434"/>
<path d="M96.1018 73.3374L84.3742 82.4364L96.1018 91.532V73.3374Z" fill="#1E2959"/>
<path d="M26.5875 103.887L8.17288 118.176L26.5875 132.462V103.887Z" fill="#0054A6"/>
<path d="M33.749 102.259V102.263H33.7536L33.749 102.259Z" fill="#092434"/>
<path d="M67.498 180.818V180.823L67.5026 180.818H67.498Z" fill="#092434"/>
<path d="M202.502 23.7044L202.498 23.6997V23.709L202.502 23.7044Z" fill="#092434"/>
<path d="M-6.10352e-05 180.823L0.00459001 180.818H-6.10352e-05V180.823Z" fill="#092434"/>
<path d="M168.745 49.8862V49.8956L168.754 49.8909L168.745 49.8862Z" fill="#092434"/>
<path d="M33.749 154.631V154.636L33.7536 154.631H33.749Z" fill="#092434"/>
<path d="M134.996 76.0723V76.0769H135.001L134.996 76.0723Z" fill="#092434"/>
<path d="M101.247 102.262V154.631V154.635L101.251 154.631L134.996 128.449L135 128.445H134.996L101.251 102.262L101.247 102.259V102.262Z" fill="#1E2959"/>
<path d="M67.498 180.818H67.5015L101.247 154.635L67.498 128.449V180.818Z" fill="#283677"/>
<path d="M67.498 128.351L101.247 154.44V102.252L67.498 128.351Z" fill="#0054A6"/>
<path d="M236.247 154.642V154.635L202.508 128.459L202.501 128.462L202.498 128.459V180.821L202.501 180.825L236.247 154.642Z" fill="#283677"/>
<path d="M236.247 102.259V102.252L202.508 76.0723L202.501 76.0758L202.498 76.0723V128.438L202.501 128.441L236.247 102.259Z" fill="#0054A6"/>
<path d="M67.498 128.449L33.7594 102.255L33.7559 102.262L33.749 102.259V154.621L33.7559 154.625L67.498 128.449Z" fill="#283677"/>
<path d="M135.062 180.951V180.94L101.32 154.764L101.317 154.768L101.313 154.764V207.126L101.317 207.13L135.062 180.951Z" fill="#0054A6"/>
<path d="M168.745 49.8999L162.543 54.7096L134.999 76.0828L168.745 102.266V49.8999Z" fill="url(#paint7_linear_1162_7511)"/>
<path d="M178.17 57.2003L168.748 49.8896V102.255L202.494 76.0725L178.17 57.2003Z" fill="#0054A6"/>
<path d="M97.5216 94.2005L117.778 109.919V109.922V109.919V78.4824L97.5216 94.2005Z" fill="#0054A6"/>
<defs>
<linearGradient id="paint0_linear_1162_7511" x1="199.595" y1="41.5625" x2="168.777" y2="10.7855" gradientUnits="userSpaceOnUse">
<stop offset="0.13" stop-color="#1E2959"/>
<stop offset="0.18" stop-color="#17336B"/>
<stop offset="0.25" stop-color="#0F3F81"/>
<stop offset="0.33" stop-color="#084992"/>
<stop offset="0.44" stop-color="#034F9D"/>
<stop offset="0.59" stop-color="#0153A4"/>
<stop offset="1" stop-color="#0054A6"/>
</linearGradient>
<linearGradient id="paint1_linear_1162_7511" x1="168.749" y1="128.445" x2="202.498" y2="128.445" gradientUnits="userSpaceOnUse">
<stop stop-color="#1E2959"/>
<stop offset="0.05" stop-color="#193167"/>
<stop offset="0.15" stop-color="#103E7E"/>
<stop offset="0.26" stop-color="#094890"/>
<stop offset="0.4" stop-color="#044F9D"/>
<stop offset="0.59" stop-color="#0153A4"/>
<stop offset="1" stop-color="#0054A6"/>
</linearGradient>
<linearGradient id="paint2_linear_1162_7511" x1="202.501" y1="76.0828" x2="236.246" y2="76.0828" gradientUnits="userSpaceOnUse">
<stop offset="0.13" stop-color="#1E2959"/>
<stop offset="0.31" stop-color="#1E2D5F"/>
<stop offset="0.32" stop-color="#1E2C5E"/>
<stop offset="0.48" stop-color="#17356F"/>
<stop offset="1" stop-color="#0054A6"/>
</linearGradient>
<linearGradient id="paint3_linear_1162_7511" x1="22.576" y1="195.813" x2="52.5661" y2="165.862" gradientUnits="userSpaceOnUse">
<stop stop-color="white"/>
<stop offset="0.26" stop-color="#FDFDFD"/>
<stop offset="0.41" stop-color="#F5F5F5"/>
<stop offset="0.52" stop-color="#E7E7E7"/>
<stop offset="0.62" stop-color="#D4D4D4"/>
<stop offset="0.7" stop-color="#BBBBBB"/>
<stop offset="0.78" stop-color="#9C9C9C"/>
<stop offset="0.86" stop-color="#787877"/>
<stop offset="0.93" stop-color="#4E4E4D"/>
<stop offset="1" stop-color="#1C1C1B"/>
</linearGradient>
<linearGradient id="paint4_linear_1162_7511" x1="168.752" y1="207.004" x2="202.497" y2="207.004" gradientUnits="userSpaceOnUse">
<stop offset="0.04" stop-color="#1E2959"/>
<stop offset="0.07" stop-color="#1D2A5C"/>
<stop offset="0.69" stop-color="#084891"/>
<stop offset="1" stop-color="#0054A6"/>
</linearGradient>
<linearGradient id="paint5_linear_1162_7511" x1="202.498" y1="207.004" x2="236.247" y2="207.004" gradientUnits="userSpaceOnUse">
<stop offset="0.04" stop-color="#1E2959"/>
<stop offset="0.07" stop-color="#1D2A5C"/>
<stop offset="0.69" stop-color="#084891"/>
<stop offset="1" stop-color="#0054A6"/>
</linearGradient>
<linearGradient id="paint6_linear_1162_7511" x1="217.93" y1="144.041" x2="240.621" y2="104.793" gradientUnits="userSpaceOnUse">
<stop offset="0.04" stop-color="#1E2959"/>
<stop offset="0.07" stop-color="#1D2A5C"/>
<stop offset="0.69" stop-color="#084891"/>
<stop offset="1" stop-color="#0054A6"/>
</linearGradient>
<linearGradient id="paint7_linear_1162_7511" x1="136.576" y1="110.551" x2="175.455" y2="56.3653" gradientUnits="userSpaceOnUse">
<stop offset="0.37" stop-color="#1E2959"/>
<stop offset="0.4" stop-color="#17336B"/>
<stop offset="0.46" stop-color="#0F3F81"/>
<stop offset="0.52" stop-color="#084992"/>
<stop offset="0.6" stop-color="#034F9D"/>
<stop offset="0.7" stop-color="#0153A4"/>
<stop offset="1" stop-color="#0054A6"/>
</linearGradient>
</defs>
</svg>
