<svg width="224" height="207" viewBox="0 0 224 207" fill="none" xmlns="http://www.w3.org/2000/svg">
<path d="M21.4986 130.603L27.7007 125.79L55.2441 104.42L21.4986 78.2374V130.603Z" fill="#8E191B"/>
<path d="M48.0936 206.465V165.204L48.0901 165.2L21.4989 185.833V185.836L48.0901 206.469L48.0936 206.465Z" fill="url(#paint0_linear_1162_7445)"/>
<path d="M55.2474 52.0474L21.5018 78.2302V78.2337L55.2474 104.417H55.2544V52.0474H55.2474Z" fill="#E01F26"/>
<path d="M-12.2436 104.413L-12.2471 104.417V104.424V156.779L21.495 130.599L21.4985 130.596L-12.2436 104.413Z" fill="#E01F26"/>
<path d="M122.753 -0.321255L122.749 -0.324726L89.0039 25.8581V25.8651L122.749 52.0479L122.753 52.0444V-0.321255Z" fill="#00AE88"/>
<path d="M89.0037 78.2305L122.749 52.0477L89.0037 25.8649V78.2305Z" fill="#9C1C1F"/>
<path d="M89 25.8608L55.2545 52.0436V52.0471L89 78.2334L89.0035 78.2299V25.8643L89 25.8608Z" fill="#E81D25"/>
<path d="M190.248 52.0477L156.502 25.8614V78.2305L190.248 52.0477Z" fill="#ED1C24"/>
<path style="mix-blend-mode:multiply" opacity="0.3" d="M156.502 25.8581V25.8616L190.247 52.0479L190.251 52.0444V-0.321255L190.247 -0.324726L156.502 25.8581Z" fill="url(#paint1_linear_1162_7445)"/>
<path d="M223.996 25.8611L190.251 -0.321678V52.0439L223.996 25.8611Z" fill="#A11C20"/>
<path d="M55.2544 52.0444V-0.321255L55.2474 -0.324726L21.5018 25.8581V25.8651L55.2474 52.0479L55.2544 52.0444Z" fill="#A11C20"/>
<path d="M89.0035 25.8576V-26.508L89 -26.5115L55.2545 -0.328655V-0.321682V52.0439L89 25.8611L89.0035 25.8576Z" fill="#57130B"/>
<path d="M89.0037 25.8579L122.749 -0.324883L89.0037 -26.5077V25.8579Z" fill="#8E191B"/>
<path d="M21.5022 -26.5077V25.8579L55.2478 -0.324883L21.5022 -26.5077Z" fill="#8E191B"/>
<path d="M21.5022 -26.5078L21.4987 -26.5113L-12.2469 -0.328457V-0.321486L21.4987 25.8613L21.5022 25.8578V-26.5078Z" fill="#ED1C24"/>
<path d="M156.501 -26.508L156.498 -26.5115L122.752 -0.328655L122.749 -0.325157L122.752 -0.321682V52.0439L156.498 25.8611L156.501 25.8576V-26.508Z" fill="#57130B"/>
<path d="M190.248 -0.324883L156.502 -26.5077V25.8579L190.248 -0.324883Z" fill="#ED1C24"/>
<path d="M-12.2471 104.413V104.417L-12.2436 104.413L21.4985 78.2337L-12.2471 52.0509V104.406V104.413Z" fill="#A11C20"/>
<path d="M156.502 78.2302V78.2337L190.247 104.417H190.251V52.0474H190.247L156.502 78.2302Z" fill="#0C2F43"/>
<path d="M30.9275 137.921L21.5022 130.607V182.972L55.2478 156.789L30.9275 137.921Z" fill="#9C1C1F"/>
<path d="M55.2476 156.789L55.2545 156.786L89.0001 130.603L55.2545 104.42H55.251H55.2545V104.416H55.2476L27.7041 125.79L21.502 130.599V78.2337V78.2302L55.2476 52.0474L21.502 25.8645V25.8576L21.4985 25.8611L-12.2471 -0.321762V52.0404V52.0439L-12.2506 52.0474L-12.2471 52.0509L21.4985 78.2337L-12.2436 104.413L21.4985 130.596L21.495 130.599L21.4985 130.603L21.502 130.606L30.9273 137.92L55.2476 156.789Z" fill="#ED1C24"/>
<path d="M55.2545 104.417V104.42L89 130.603H89.0035V78.2339H89L55.2545 104.417Z" fill="#8E191B"/>
<path d="M89.0035 25.8647V25.8575L88.9999 25.8611L89.0035 25.8647Z" fill="#092434"/>
<path d="M55.2544 52.0442L55.2472 52.0479H55.2544V52.0442Z" fill="#092434"/>
<path d="M127.898 133.341L139.626 124.242L127.898 115.147V133.341Z" fill="#9C1C1F"/>
<path d="M197.412 102.792L215.827 88.503L197.412 74.217V102.792Z" fill="#ED1C24"/>
<path d="M190.251 104.42V104.416H190.247L190.251 104.42Z" fill="#092434"/>
<path d="M156.501 25.8613V25.8578L156.498 25.8613H156.501Z" fill="#092434"/>
<path d="M21.4986 182.975L21.5022 182.979V182.972L21.4986 182.975Z" fill="#092434"/>
<path d="M224 25.8578L223.997 25.8613H224V25.8578Z" fill="#092434"/>
<path d="M55.2544 156.792V156.785L55.2472 156.789L55.2544 156.792Z" fill="#092434"/>
<path d="M190.251 52.0479V52.0444L190.247 52.0479H190.251Z" fill="#092434"/>
<path d="M89.0035 130.606V130.603H89.0001L89.0035 130.606Z" fill="#092434"/>
<path d="M122.753 104.416V52.0473V52.0438L122.749 52.0473L89.0038 78.2301L89.0004 78.2336H89.0038L122.749 104.416L122.753 104.42V104.416Z" fill="#57130B"/>
<path d="M156.501 25.8614H156.498L122.752 52.0442L156.501 78.2305V25.8614Z" fill="#9C1C1F"/>
<path d="M156.501 78.23L122.752 52.0437V104.427L156.501 78.23Z" fill="#ED1C24"/>
<path d="M-12.2469 52.0369V52.0439L21.4917 78.2197L21.4987 78.2162L21.5022 78.2197V25.8576L21.4987 25.8541L-12.2469 52.0369Z" fill="#8E191B"/>
<path d="M-12.2469 104.42V104.427L21.4917 130.606L21.4987 130.603L21.5022 130.606V78.2408L21.4987 78.2373L-12.2469 104.42Z" fill="#ED1C24"/>
<path d="M156.502 78.23L190.24 104.423L190.244 104.416L190.251 104.42V52.0577L190.244 52.0542L156.502 78.23Z" fill="#A11C20"/>
<path d="M88.9372 25.7287V25.7392L122.679 51.915L122.683 51.9116L122.686 51.915V-0.447086L122.683 -0.450584L88.9372 25.7287Z" fill="#E01F26"/>
<path d="M55.2545 156.779L61.4567 151.969L89.0001 130.596L55.2545 104.413V156.779Z" fill="url(#paint2_linear_1162_7445)"/>
<path d="M45.8289 149.478L55.2507 156.789V104.423L21.5052 130.606L45.8289 149.478Z" fill="#ED1C24"/>
<path d="M126.478 112.478L106.222 96.7602V96.7567V96.7602V128.196L126.478 112.478Z" fill="#ED1C24"/>
<path d="M21.5197 26.0078L-12.2119 52.1836V26.0078H21.5197Z" fill="#ED1C24"/>
<defs>
<linearGradient id="paint0_linear_1162_7445" x1="24.4047" y1="165.116" x2="55.2225" y2="195.893" gradientUnits="userSpaceOnUse">
<stop offset="0.13" stop-color="#540E1F"/>
<stop offset="0.16" stop-color="#671020"/>
<stop offset="0.21" stop-color="#861422"/>
<stop offset="0.27" stop-color="#A21823"/>
<stop offset="0.33" stop-color="#B81A24"/>
<stop offset="0.41" stop-color="#C91C25"/>
<stop offset="0.5" stop-color="#D41E26"/>
<stop offset="0.63" stop-color="#DB1F26"/>
<stop offset="1" stop-color="#DD1F26"/>
</linearGradient>
<linearGradient id="paint1_linear_1162_7445" x1="201.424" y1="10.8665" x2="171.434" y2="40.8168" gradientUnits="userSpaceOnUse">
<stop stop-color="white"/>
<stop offset="0.26" stop-color="#FDFDFD"/>
<stop offset="0.41" stop-color="#F5F5F5"/>
<stop offset="0.52" stop-color="#E7E7E7"/>
<stop offset="0.62" stop-color="#D4D4D4"/>
<stop offset="0.7" stop-color="#BBBBBB"/>
<stop offset="0.78" stop-color="#9C9C9C"/>
<stop offset="0.86" stop-color="#787877"/>
<stop offset="0.93" stop-color="#4E4E4D"/>
<stop offset="1" stop-color="#1C1C1B"/>
</linearGradient>
<linearGradient id="paint2_linear_1162_7445" x1="87.4234" y1="96.128" x2="48.5448" y2="150.314" gradientUnits="userSpaceOnUse">
<stop offset="0.37" stop-color="#540E1F"/>
<stop offset="0.39" stop-color="#641120"/>
<stop offset="0.44" stop-color="#7F1622"/>
<stop offset="0.49" stop-color="#951923"/>
<stop offset="0.55" stop-color="#A61C25"/>
<stop offset="0.62" stop-color="#B11E25"/>
<stop offset="0.72" stop-color="#B82026"/>
<stop offset="1" stop-color="#BA2026"/>
</linearGradient>
</defs>
</svg>
